PathFileType	4	(X/Y/Z)	8_coords_data.trc
DataRate	CameraRate	NumFrames	NumMarkers	Units	OrigDataRate	OrigDataStartFrame	OrigNumFrames
30.0	30.0	6	21	m	30.0	11	62
Frame#	Time	THUMB_TIP	THUMB_IP	THUMB_MCP	THUMB_CMC	INDEX_TIP	INDEX_DIP	INDEX_PIP	INDEX_MCP	MIDDLE_TIP	MIDDLE_DIP	MIDDLE_PIP	MIDDLE_MCP	RING_TIP	RING_DIP	RING_PIP	RING_MCP	PINKY_TIP	PINKY_DIP	PINKY_PIP	PINKY_MCP	WRIST
X1	Y1	Z1	X2	Y2	Z2	X3	Y3	Z3	X4	Y4	Z4	X5	Y5	Z5	X6	Y6	Z6	X7	Y7	Z7	X8	Y8	Z8	X9	Y9	Z9	X10	Y10	Z10	X11	Y11	Z11	X12	Y12	Z12	X13	Y13	Z13	X14	Y14	Z14	X15	Y15	Z15	X16	Y16	Z16	X17	Y17	Z17	X18	Y18	Z18	X19	Y19	Z19	X20	Y20	Z20	X21	Y21	Z21
9	0.33333333333333187	0.4728520012216513	-0.036076230293201395	-0.17053904550174476	0.4815216699835737	-0.03177426669979211	-0.14969846122971608	0.4817557401104977	-0.028307796827645504	-0.11876710500660195	0.48007307860855053	-0.025921253591236537	-0.07425460045281823	0.5005010720977267	-0.010563878986040831	-0.09915292662011062	0.5183170273933279	-0.013788471366837918	-0.09959308668513539	0.5362046500203427	0.0007302192731769575	-0.10965541304900617	0.49955507179978254	0.02214884253124849	-0.11307405137205738	0.5043379617931786	-0.014392484363850433	-0.08529100287615574	0.5221212447339374	-0.011101669944434511	-0.08432903182363757	0.5423752117210269	0.008480352513125844	-0.09179433608786497	0.5047480860280457	0.03246791063637644	-0.09401793415592127	0.5098837972248025	-0.004093985598787708	-0.0709238530501761	0.5277713775119944	-0.0022375966351705356	-0.06966357868123063	0.5457196025604104	0.014746165480553741	-0.07276083892342977	0.511426822478777	0.03609993369607234	-0.07441693411110417	0.5077774399949151	-0.00961653871303969	-0.05604027593486183	0.5248285420737866	-0.009813224235064921	-0.05454989588221265	0.5379070020829289	0.006611320535668375	-0.054534668819373855	0.5119649694303706	0.0316385017586448	-0.05329588195881094	0.4622830810018608	-0.023011742144276925	-0.051989820119430985
10	0.3666666666666651	0.4729141385144532	-0.03607527181180814	-0.17049055908665756	0.4816226059468025	-0.031811896672156004	-0.14965822298629883	0.4818549386553329	-0.02836144427957099	-0.11872506278888201	0.48011425989807544	-0.02597185161437232	-0.07421495287710508	0.5006346269114816	-0.010633170519464108	-0.09913017595298335	0.5184495910176441	-0.013863472611550631	-0.09956858476904981	0.5363449199060228	0.0006278347529498074	-0.10965664939237262	0.49968950794484823	0.022036552394872233	-0.11307478878172143	0.504461268242337	-0.014350995124889132	-0.08528937046352765	0.5222628140897697	-0.011178564662560064	-0.08426924772413083	0.5425142256575994	0.00839970601748874	-0.09175130604314391	0.5048772039388637	0.0323675414756841	-0.09401964918126995	0.5100076910967152	-0.00415405505294808	-0.07087896649259728	0.5278936218656803	-0.0022905114342597344	-0.06960590494301111	0.5458430524236735	0.014692534117269451	-0.07270010684955638	0.5115338565141564	0.03601627241035088	-0.07440248614059233	0.5078035316386162	-0.009646356320585414	-0.05603248537262981	0.5248500821167378	-0.009863373247355534	-0.05449364800294074	0.5379280511426677	0.006561524537701313	-0.05445520444367685	0.5120003429008129	0.03160667021073005	-0.053281290246626895	0.4622830810018608	-0.023011742144276925	-0.051989820119430985
11	0.39999999999999825	0.4729713296327195	-0.03612933071771385	-0.17044648746475682	0.481713462405165	-0.03188482076985155	-0.1496244018369569	0.4819390652072375	-0.02844385574385322	-0.11869013502706541	0.48014604766600955	-0.02600739545038555	-0.07418464380030548	0.5007473647736659	-0.010659044966719655	-0.09913775523788343	0.5185592695637581	-0.013907266862415724	-0.09956799036547126	0.5364465533880607	0.0005687788726617127	-0.10969216985147336	0.4997704829065013	0.021944900126777633	-0.1130926680739445	0.5045585192374525	-0.014293016449466123	-0.08530538752574177	0.5223737555264844	-0.011217506198867966	-0.08422900810173112	0.542630486485371	0.008349002419141827	-0.09172741735707524	0.5049709353466574	0.0322768004576226	-0.09404401185337552	0.5100875100311034	-0.004194061224042089	-0.07086476418339233	0.5279725405422537	-0.00233211162627156	-0.06957680948287503	0.5459239035120654	0.014649500067130061	-0.07266766871949545	0.5116032400691202	0.03595047015413899	-0.07442310831926394	0.5078033495718697	-0.009726995831452867	-0.05602351000502234	0.5248484638074451	-0.009900567637456614	-0.054463396700051736	0.5379245757931002	0.006525757134527854	-0.054407104392477784	0.512015079338681	0.03159279826218808	-0.05330035528692981	0.4622830810018608	-0.023011742144276925	-0.051989820119430985
12	0.43333333333333146	0.47299335591899994	-0.03619959999983502	-0.17041184870481557	0.48176221892733473	-0.03196176043216192	-0.1495996465786656	0.48198879109080717	-0.02851894222106477	-0.11866559304829105	0.480167570942035	-0.026031094462017346	-0.07416409003212868	0.5008305836571106	-0.010741672298287708	-0.09911797923129778	0.5186499660407311	-0.013947133010519086	-0.09955915163372123	0.5365109132322307	0.0005290187140635227	-0.10972957097951683	0.4998084704271001	0.0218595019246407	-0.11313211005194652	0.5046504326950834	-0.014280452686705747	-0.08531285095000644	0.522466658351861	-0.011216118879234016	-0.08422108098194403	0.5427036555979838	0.008361131430883129	-0.09174469465859186	0.5050004202541956	0.03221696970489951	-0.0940926609817957	0.5101433868619685	-0.004172300665200135	-0.07088970451133003	0.5280289614636875	-0.0023290328679932415	-0.06958257598125878	0.5459698989372533	0.014662223577163735	-0.07268095394150068	0.5116218879529283	0.03591605717168844	-0.0744724708844689	0.5078255788365665	-0.009708320277726834	-0.05604082877437841	0.5248687926844449	-0.009891543602348563	-0.05446117977893533	0.5379147955819522	0.006558697914254452	-0.05440302959700377	0.5119913127380752	0.03161335790078845	-0.05334449230319374	0.462283081001861	-0.023011742144276925	-0.051989820119430985
13	0.4666666666666647	0.47300050264585125	-0.036311088286152704	-0.17036755311858043	0.4817999497409078	-0.03205521606751727	-0.1495719458305028	0.4820326600173034	-0.02859769255507616	-0.11863957804062647	0.4801912988796019	-0.02605071146618343	-0.07414224917143045	0.5009097361952651	-0.01082904468563417	-0.09910180477946208	0.5187380975132097	-0.013982078429406686	-0.09955777728680472	0.5365848165441364	0.00048297715007816766	-0.10976888006336974	0.49985541784722864	0.021767073444614815	-0.11317102795675832	0.5047288235788374	-0.014249444884158136	-0.0853307259385505	0.5225503945159535	-0.01122574068254567	-0.08421321878667667	0.5427734682131425	0.008353024612656523	-0.09177025456490688	0.5050358782573041	0.0321521616592374	-0.09414160463671555	0.5102123712392727	-0.004160169059479357	-0.07091948913101878	0.5280970210007765	-0.002314647329235031	-0.06960292069316931	0.5460252590767872	0.014687195726657332	-0.0727166951218465	0.5116405222889255	0.03588006773604735	-0.07452580706506307	0.5078430809862974	-0.00972478553213596	-0.056064274421780136	0.5248852549832262	-0.009894122110691517	-0.0544719080752491	0.5379127152652822	0.0065708139077899075	-0.054415520959949004	0.5119823683531476	0.03162011441246404	-0.0533991036033063	0.4622830810018609	-0.023011742144276925	-0.051989820119430985
14	0.4999999999999978	0.47301507478240123	-0.03649175553971129	-0.17032280499561858	0.4818346091329285	-0.03220703902866373	-0.14954163519553693	0.48207894139111906	-0.028701459897772286	-0.1186147663481307	0.48021072845196633	-0.026075034025752175	-0.07412317537238824	0.500983147048479	-0.010845989301018877	-0.09911894850968739	0.5188092307481409	-0.014015060793116985	-0.09955222187676296	0.5366383614856425	0.000447414371411603	-0.10979764730767969	0.49988333613407776	0.021684961072929054	-0.11321390483700933	0.5048063765870742	-0.014213577532163013	-0.0853343462941814	0.5226370784131567	-0.011248205491295904	-0.08420623235995842	0.5428349996101244	0.008344400643647276	-0.09179459938864556	0.5050634199038178	0.03208613234949764	-0.09419998149915074	0.5102510863936247	-0.00414659663220418	-0.07095283829703536	0.5281351271785728	-0.002305220712406575	-0.06962226701961227	0.5460567947658421	0.01470066218533439	-0.07275176486427506	0.5116467084377179	0.03584971129195558	-0.07459146994302002	0.507854040781573	-0.00973110788068976	-0.056073059386679225	0.5248963127330284	-0.009869071598537893	-0.05447871540083565	0.5379075708602957	0.006608703039897357	-0.054432629496706575	0.511958367906356	0.03164028301355193	-0.05346189725876446	0.4622830810018608	-0.023011742144276925	-0.051989820119430985
